<svg width="103" height="103" viewBox="0 0 103 103" fill="none" xmlns="http://www.w3.org/2000/svg">
<path fill-rule="evenodd" clip-rule="evenodd" d="M0 51.5C0 23.0573 23.0573 0 51.5 0C79.9427 0 103 23.0573 103 51.5C103 79.9427 79.9427 103 51.5 103C23.0573 103 0 79.9427 0 51.5ZM70.5698 41.918C71.8415 40.1376 71.4291 37.6634 69.6488 36.3918C67.8684 35.1201 65.3942 35.5324 64.1225 37.3128L47.0329 61.2382L38.4551 52.6603C36.908 51.1132 34.3997 51.1132 32.8526 52.6603C31.3055 54.2074 31.3055 56.7157 32.8526 58.2628L44.7372 70.1474C45.5607 70.9708 46.7047 71.3902 47.8652 71.2942C49.0257 71.1981 50.0852 70.5963 50.7621 69.6488L70.5698 41.918Z" fill="#125E34"/>
</svg>
