<svg width="114" height="114" viewBox="0 0 114 114" fill="none" xmlns="http://www.w3.org/2000/svg">
<path fill-rule="evenodd" clip-rule="evenodd" d="M16.7587 19.002C-4.84648 40.6071 -4.84648 75.636 16.7587 97.2413C38.3637 118.846 73.3929 118.846 94.9979 97.2413C116.603 75.636 116.603 40.6071 94.9979 19.002C73.3929 -2.60317 38.3637 -2.60317 16.7587 19.002ZM46.8507 43.0756C45.1886 41.4139 42.4942 41.4139 40.8322 43.0756C39.1705 44.7376 39.1705 47.4321 40.8322 49.0941L49.86 58.1216L40.8322 67.1494C39.1705 68.8111 39.1705 71.5058 40.8322 73.1675C42.4942 74.8296 45.1886 74.8296 46.8507 73.1675L55.8785 64.1401L64.906 73.1675C66.568 74.8296 69.2624 74.8296 70.9245 73.1675C72.5862 71.5058 72.5862 68.8111 70.9245 67.1494L61.8967 58.1216L70.9245 49.0941C72.5862 47.4321 72.5862 44.7376 70.9245 43.0756C69.2624 41.4139 66.568 41.4139 64.906 43.0756L55.8785 52.1034L46.8507 43.0756Z" fill="#7B3F3F"/>
</svg>
