<svg width="233" height="225" viewBox="0 0 233 225" fill="none" xmlns="http://www.w3.org/2000/svg">
<path d="M155.21 8.67349C139.116 5.25093 122.382 3.61036 106.021 4.65559C91.5198 5.58256 75.0818 8.11252 63.413 17.1736C57.8516 21.4919 51.2198 29.2512 49.4012 36.0964C49.4012 36.0972 39.826 72.128 20.6765 79.8482C1.527 87.5691 -11.7717 219.341 133.446 206.472C133.446 206.472 218.74 203.1 223.875 105.973C225.116 82.5092 224.422 56.7157 209.56 37.0969C198.171 22.0625 182.214 15.378 163.878 10.7008C161.014 9.97044 158.122 9.2928 155.21 8.67349Z" fill="#CFD3D8" fill-opacity="0.25"/>
<path d="M148.147 88.6695L149.118 93.6415C146.952 94.499 144.885 95.5282 142.942 96.7261L139.624 92.9176C138.719 91.8787 137.14 91.7812 136.097 92.7002L129.568 98.453C128.522 99.3743 128.407 100.966 129.311 102.009L132.658 105.87C131.219 107.679 129.933 109.608 128.82 111.638L123.973 109.99C122.666 109.546 121.236 110.259 120.78 111.584L117.92 119.881C117.462 121.21 118.151 122.651 119.461 123.098L124.325 124.759C123.963 127.029 123.803 129.351 123.838 131.703L118.75 132.74C117.383 133.018 116.485 134.365 116.743 135.748L118.359 144.415C118.618 145.804 119.939 146.705 121.309 146.425L126.413 145.384C127.238 147.591 128.235 149.697 129.402 151.679L125.477 155.165C124.419 156.106 124.301 157.735 125.215 158.805L130.939 165.509C131.856 166.583 133.458 166.689 134.518 165.744L138.442 162.247C140.24 163.725 142.164 165.041 144.19 166.181L142.501 171.198C142.044 172.556 142.75 174.031 144.078 174.491L152.397 177.373C153.729 177.834 155.177 177.104 155.631 175.742L157.293 170.765C159.575 171.128 161.909 171.279 164.271 171.228L165.278 176.381C165.553 177.791 166.896 178.707 168.279 178.426L176.92 176.664C178.302 176.382 179.195 175.01 178.915 173.6L177.902 168.491C180.118 167.622 182.227 166.57 184.21 165.346L187.576 169.23C188.51 170.308 190.124 170.414 191.178 169.466L197.764 163.546C198.816 162.601 198.91 160.963 197.974 159.889L194.619 156.037C196.083 154.175 197.381 152.186 198.5 150.094L203.277 151.726C204.612 152.182 206.052 151.457 206.491 150.106L209.236 141.677C209.674 140.331 208.949 138.873 207.617 138.421L202.885 136.812C203.224 134.489 203.35 132.114 203.275 129.715L208.156 128.72C209.526 128.44 210.404 127.092 210.117 125.709L208.329 117.076C208.044 115.698 206.705 114.808 205.339 115.087L200.473 116.079C199.601 113.859 198.556 111.744 197.338 109.762L201.034 106.468C202.073 105.542 202.165 103.942 201.238 102.895L195.459 96.3593C194.536 95.3165 192.947 95.2182 191.909 96.1403L188.19 99.4454C186.368 97.9959 184.426 96.7077 182.382 95.6001L183.962 90.8678C184.402 89.5509 183.692 88.1269 182.38 87.6866L174.176 84.9377C172.866 84.4982 171.446 85.207 171.004 86.5207L169.407 91.2634C167.15 90.9294 164.843 90.7991 162.508 90.8702L161.531 85.9406C161.261 84.5845 159.946 83.7087 158.591 83.9852L150.121 85.712C148.767 85.9885 147.884 87.3118 148.148 88.6687L148.147 88.6695ZM138.481 135.81C135.815 121.868 144.804 108.357 158.545 105.555C172.285 102.755 185.694 111.699 188.511 125.611C191.344 139.605 182.393 153.309 168.502 156.14C154.611 158.972 141.164 149.835 138.482 135.81H138.481Z" fill="#B7BECA"/>
<path d="M192.156 66.4168L192.441 67.8792C191.804 68.1317 191.196 68.4338 190.625 68.7862L189.649 67.6658C189.383 67.3606 188.918 67.3318 188.611 67.6019L186.691 69.2936C186.383 69.5645 186.35 70.0328 186.616 70.3396L187.6 71.4752C187.177 72.0066 186.799 72.5739 186.471 73.1717L185.046 72.6874C184.661 72.5571 184.241 72.7665 184.107 73.1557L183.266 75.5961C183.131 75.9869 183.334 76.4104 183.719 76.5423L185.149 77.0305C185.043 77.6978 184.995 78.381 185.006 79.0723L183.509 79.3775C183.107 79.459 182.844 79.8554 182.919 80.2621L183.395 82.8113C183.471 83.2196 183.86 83.4841 184.262 83.4026L185.763 83.0965C186.005 83.7454 186.299 84.3647 186.642 84.9481L185.488 85.9733C185.177 86.2498 185.142 86.7293 185.41 87.0433L187.094 89.0147C187.363 89.3304 187.835 89.3615 188.147 89.0842L189.301 88.0558C189.83 88.4905 190.395 88.8773 190.991 89.2129L190.495 90.688C190.36 91.0876 190.568 91.5215 190.958 91.6566L193.404 92.5044C193.796 92.6403 194.222 92.4253 194.356 92.0249L194.844 90.561C195.515 90.6681 196.201 90.712 196.896 90.6976L197.192 92.2127C197.273 92.6275 197.668 92.8968 198.074 92.8137L200.616 92.2958C201.022 92.2127 201.285 91.8092 201.202 91.3952L200.904 89.8929C201.556 89.6372 202.176 89.328 202.759 88.9684L203.749 90.1103C204.024 90.4275 204.498 90.4587 204.808 90.1798L206.745 88.4386C207.054 88.1605 207.081 87.6786 206.806 87.363L205.82 86.2306C206.251 85.6832 206.632 85.0975 206.961 84.483L208.366 84.9633C208.758 85.0975 209.182 84.8841 209.311 84.487L210.118 82.0082C210.247 81.6126 210.033 81.1835 209.642 81.0508L208.25 80.5778C208.35 79.8945 208.387 79.1961 208.365 78.4905L209.8 78.198C210.203 78.1157 210.461 77.7194 210.377 77.3126L209.851 74.7739C209.767 74.3687 209.374 74.1066 208.972 74.1889L207.541 74.4806C207.284 73.8277 206.976 73.206 206.618 72.6227L207.706 71.6542C208.011 71.3817 208.038 70.911 207.765 70.6033L206.066 68.6815C205.795 68.3746 205.327 68.3459 205.022 68.6168L203.928 69.5885C203.393 69.1618 202.821 68.783 202.221 68.4577L202.685 67.0665C202.815 66.6789 202.606 66.2602 202.22 66.1307L199.807 65.3221C199.422 65.1926 199.004 65.4012 198.875 65.7879L198.405 67.1832C197.741 67.0849 197.063 67.0465 196.376 67.0673L196.089 65.6177C196.01 65.219 195.623 64.9617 195.225 65.0424L192.734 65.5506C192.336 65.6321 192.076 66.0213 192.153 66.42L192.156 66.4168ZM189.313 80.2805C188.529 76.1803 191.172 72.2071 195.213 71.3833C199.254 70.5594 203.198 73.19 204.026 77.2815C204.859 81.3968 202.226 85.4275 198.142 86.2602C194.057 87.0929 190.102 84.4063 189.313 80.2813V80.2805Z" fill="#B7BECA"/>
<path d="M83.4738 138.432C86.3996 129.518 89.3782 115.91 85.892 100.802C81.8886 83.4546 73.0201 79.9832 65.0574 61.4392C53.6908 34.9681 66.5546 15.7935 54.7883 7.70339C49.0503 3.75821 40.0267 3.75501 34.4637 7.71618C18.5917 19.0171 22.9428 68.2412 48.1254 87.4501C59.5152 96.1379 69.4532 95.1071 78.0004 106.349C85.5523 116.283 84.9607 129.387 83.4746 138.432H83.4738Z" fill="url(#paint0_linear_18_4160)"/>
<mask id="mask0_18_4160" style="mask-type:luminance" maskUnits="userSpaceOnUse" x="25" y="4" width="63" height="135">
<path d="M83.4738 138.432C86.3996 129.518 89.3782 115.91 85.892 100.802C81.8886 83.4546 73.0201 79.9832 65.0574 61.4392C53.6908 34.9681 66.5546 15.7935 54.7883 7.70339C49.0503 3.75821 40.0267 3.75501 34.4637 7.71618C18.5917 19.0171 22.9428 68.2412 48.1254 87.4501C59.5152 96.1379 69.4532 95.1071 78.0004 106.349C85.5523 116.283 84.9607 129.387 83.4746 138.432H83.4738Z" fill="white"/>
</mask>
<g mask="url(#mask0_18_4160)">
<g style="mix-blend-mode:soft-light">
<path d="M85.2621 116.004C84.3076 112.255 83.0246 108.571 81.449 105.054C77.8269 96.973 73.8291 92.5276 68.7682 86.8995C65.4651 83.226 61.7215 79.0635 57.3952 73.0942C49.3005 61.9259 46.7888 58.0023 44.5377 51.6782C40.0834 39.1634 40.7677 27.9423 41.5719 22.3678C42.7127 14.4598 45.3675 6.93386 49.4612 3.05176e-05L49.7074 0.145468C45.6329 7.04734 42.9909 14.5374 41.8549 22.4085C41.0547 27.9567 40.3736 39.125 44.8071 51.5823C47.0462 57.8728 49.5515 61.7844 57.627 72.9264C61.9445 78.8829 65.6833 83.0406 68.9816 86.7085C74.0594 92.355 78.0699 96.8156 81.7104 104.938C83.2932 108.469 84.5818 112.169 85.5395 115.933L85.2621 116.004Z" fill="#CACACA"/>
<path d="M42.3641 42.8377L42.1571 42.7258C42.1099 42.7002 37.4095 40.1175 33.2326 34.861C29.3764 30.008 25.1859 21.8164 27.1229 10.3564L27.405 10.4044C25.4857 21.7557 29.633 29.8682 33.4493 34.6748C37.0945 39.2657 41.1403 41.7996 42.0875 42.3574C42.349 33.2021 48.2205 27.2695 53.124 23.8965C58.4736 20.2166 63.8567 18.7071 63.9102 18.6919L63.9862 18.9676C63.9326 18.982 58.5895 20.4819 53.2799 24.137C48.3916 27.502 42.5304 33.437 42.3681 42.6043L42.3641 42.8393V42.8377Z" fill="#CACACA"/>
<path d="M43.7031 72.2807C38.9491 72.2807 33.3621 71.1132 28.2029 67.0985L28.3787 66.8731C39.9572 75.8822 53.7244 70.3892 55.0913 69.8074C52.7523 60.768 54.8211 54.0994 56.9747 50.0911C59.3201 45.7256 62.2747 43.4817 62.3043 43.4594L62.4761 43.6879C62.4474 43.7095 59.5352 45.9238 57.2201 50.2382C55.0857 54.2169 53.0369 60.8503 55.3991 69.853L55.4295 69.9689L55.3207 70.0192C55.2352 70.0584 50.2614 72.2807 43.7031 72.2807Z" fill="#CACACA"/>
<path d="M54.3087 89.5238C50.7434 89.5238 46.4754 88.8765 41.5096 87.0633L41.6079 86.7948C57.878 92.737 66.5626 86.0812 67.4596 85.3373C63.5002 76.078 69.0767 61.1036 69.1335 60.9526L69.4013 61.0533C69.3445 61.2035 63.7704 76.1747 67.7641 85.3197L67.8049 85.4132L67.729 85.4819C67.6666 85.5386 63.1524 89.523 54.3095 89.523L54.3087 89.5238Z" fill="#CACACA"/>
</g>
</g>
<path d="M88.5668 127.681C89.4949 122.069 90.0281 113.305 85.4588 105.468C77.4872 91.794 62.9558 96.3297 49.0479 81.6798C37.83 69.8642 41.3649 60.6809 28.9351 52.8289C26.8543 51.5143 15.861 44.2816 7.68555 48.6384C3.07864 51.0932 1.4095 56.1332 1.09614 57.0793C-3.63948 71.3785 10.9303 93.7646 29.9207 104.004C40.8317 109.887 44.3514 107.965 63.5521 114.826C74.8348 118.857 83.3052 124.049 88.5676 127.682L88.5668 127.681Z" fill="#CA679D"/>
<mask id="mask1_18_4160" style="mask-type:luminance" maskUnits="userSpaceOnUse" x="0" y="47" width="90" height="81">
<path d="M88.5668 127.681C89.4949 122.069 90.0281 113.305 85.4588 105.468C77.4872 91.794 62.9558 96.3297 49.0479 81.6798C37.83 69.8642 41.3649 60.6809 28.9351 52.8289C26.8543 51.5143 15.861 44.2816 7.68555 48.6384C3.07864 51.0932 1.4095 56.1332 1.09614 57.0793C-3.63948 71.3785 10.9303 93.7646 29.9207 104.004C40.8317 109.887 44.3514 107.965 63.5521 114.826C74.8348 118.857 83.3052 124.049 88.5676 127.682L88.5668 127.681Z" fill="white"/>
</mask>
<g mask="url(#mask1_18_4160)">
<g style="mix-blend-mode:soft-light">
<path d="M90.168 134.439C87.3893 121.098 82.1309 112.141 74.5382 107.817C70.8338 105.707 67.8745 105.372 64.7408 105.018C61.317 104.631 57.7765 104.23 53.0928 101.399C48.5347 98.6439 46.9055 95.9981 44.8423 92.6483C43.0093 89.6724 40.7286 85.9693 35.6109 81.0389C31.1246 76.7165 27.8551 74.6924 24.9717 72.9064C21.8149 70.9517 19.3216 69.4079 16.4262 65.6153C11.7097 59.4374 9.24519 51.5215 9.0997 42.0881L9.38588 42.0833C9.52978 51.4544 11.9751 59.3136 16.6532 65.4419C19.5158 69.1921 21.99 70.724 25.122 72.6634C28.0182 74.4566 31.3013 76.4895 35.8091 80.8335C40.9532 85.7895 43.2443 89.5102 45.0861 92.4988C47.1293 95.8151 48.7425 98.4354 53.2415 101.155C57.8716 103.953 61.3802 104.35 64.7744 104.735C67.9376 105.093 70.9258 105.431 74.6813 107.569C82.3483 111.935 87.6539 120.957 90.4494 134.382L90.1696 134.44L90.168 134.439Z" fill="#CACACA"/>
<path d="M25.1372 73.7302C15.3813 73.7302 8.09805 69.992 3.64622 66.7852C-1.36919 63.1725 -3.97442 59.431 -4 59.3943L-3.76418 59.2321C-3.7386 59.2688 -1.15575 62.9759 3.82289 66.5599C8.38584 69.845 15.9497 73.6919 26.1116 73.4314C25.5001 71.4664 20.4095 54.2592 26.995 46.8723L27.2084 47.0625C20.3624 54.7419 26.3794 73.3379 26.441 73.5249L26.5009 73.7063L26.3099 73.7119C25.915 73.7238 25.5241 73.7294 25.1372 73.7294V73.7302Z" fill="#CACACA"/>
<path d="M24.3873 89.5925C18.1473 89.5925 10.1885 88.3083 2.20331 83.5233L2.3504 83.2779C12.2797 89.2289 22.169 89.7283 28.7177 89.0994C35.2183 88.4753 39.8013 86.647 40.5655 86.3265C37.9211 76.5726 40.2777 62.8185 40.3017 62.6802L40.5831 62.7298C40.5591 62.868 38.1945 76.6733 40.8741 86.3713L40.9068 86.4895L40.7949 86.5399C40.747 86.5615 35.8994 88.6959 28.756 89.3839C27.4274 89.5118 25.9621 89.5933 24.3881 89.5933L24.3873 89.5925Z" fill="#CACACA"/>
<path d="M32.8497 112.241C32.3741 112.241 31.8937 112.236 31.4076 112.226L31.414 111.939C41.3985 112.155 49.0831 110.079 53.7715 108.3C58.2465 106.602 60.9109 104.848 61.4961 104.444C54.1704 95.346 57.041 80.4955 57.0714 80.346L57.352 80.402C57.3224 80.5506 54.455 95.4004 61.815 104.382L61.9102 104.498L61.7887 104.588C61.6815 104.666 51.1599 112.241 32.8497 112.241Z" fill="#CACACA"/>
</g>
</g>
<path d="M88.7627 122.914C85.6402 120.671 80.5305 117.425 73.6573 114.989C61.4313 110.656 55.8291 113.212 50.6531 108.045C45.2955 102.697 48.7657 97.4301 42.3513 91.4576C41.8117 90.9557 34.925 84.7083 28.6945 87.0345C24.3362 88.6615 22.639 93.6112 21.8428 95.9334C18.7524 104.946 20.5494 118.679 30.1678 125.453C39.2873 131.876 50.8329 128.815 54.4982 127.817C60.9293 126.067 62.4529 123.561 68.9904 121.976C76.9412 120.05 84.087 121.477 88.7619 122.914L88.7627 122.914Z" fill="#BD6E66"/>
<mask id="mask2_18_4160" style="mask-type:luminance" maskUnits="userSpaceOnUse" x="20" y="86" width="69" height="44">
<path d="M88.7627 122.914C85.6402 120.671 80.5305 117.425 73.6573 114.989C61.4313 110.656 55.8291 113.212 50.6531 108.045C45.2955 102.697 48.7657 97.4301 42.3513 91.4576C41.8117 90.9557 34.925 84.7083 28.6945 87.0345C24.3362 88.6615 22.639 93.6112 21.8428 95.9334C18.7524 104.946 20.5494 118.679 30.1678 125.453C39.2873 131.876 50.8329 128.815 54.4982 127.817C60.9293 126.067 62.4529 123.561 68.9904 121.976C76.9412 120.05 84.087 121.477 88.7619 122.914L88.7627 122.914Z" fill="white"/>
</mask>
<g mask="url(#mask2_18_4160)">
<g style="mix-blend-mode:soft-light">
<path d="M91.3031 124.974C83.7448 119.445 76.3728 116.84 69.3893 117.231C66.342 117.401 64.1964 118.081 62.122 118.739C59.4888 119.573 57.0034 120.363 52.8674 120.189C45.4394 119.879 39.0962 117.355 35.0057 113.08C28.6737 106.462 27.2675 95.374 31.4228 84.8314L31.689 84.9361C27.5745 95.3748 28.9575 106.344 35.2127 112.882C39.2513 117.102 45.5249 119.596 52.8794 119.903C56.9619 120.074 59.4272 119.293 62.0356 118.466C64.1269 117.802 66.29 117.117 69.3733 116.944C76.424 116.551 83.8583 119.174 91.4718 124.742L91.3031 124.973V124.974Z" fill="#CACACA"/>
<path d="M32.207 108.863L32 108.789C31.8785 108.745 19.83 104.342 19.0817 95.004L19.3671 94.9816C20.0474 103.468 30.2996 107.817 31.8912 108.441C31.1702 96.4016 45.7176 89.7555 45.8655 89.6891L45.9822 89.9505C45.8351 90.016 31.2893 96.6637 32.1918 108.643L32.2086 108.862L32.207 108.863Z" fill="#CACACA"/>
<path d="M34.4821 123.115C30.1062 123.115 24.512 122.044 18.1241 118.41L18.2655 118.161C27.2212 123.256 34.5956 123.272 39.2041 122.389C43.6424 121.539 46.4306 119.719 47.0102 119.313C40.0243 109.499 48.5403 97.848 48.6274 97.7314L48.8568 97.9024C48.7705 98.0182 40.3113 109.595 47.3252 119.262L47.4075 119.374L47.2964 119.459C47.2668 119.481 44.3099 121.701 39.2577 122.67C37.8947 122.931 36.2927 123.114 34.4813 123.114L34.4821 123.115Z" fill="#CACACA"/>
</g>
</g>
<path d="M233 200.975L7.55447 198.994V204.855C7.55447 206.446 8.53773 207.798 9.86952 208.039L73.6189 219.581C74.3752 219.717 75.1426 219.754 75.906 219.689L230.55 206.53C231.93 206.413 233 205.056 233 203.422V200.975Z" fill="url(#paint1_linear_18_4160)"/>
<path d="M151.187 191.474L9.8855 202.196C7.35701 202.388 5.30096 200.349 5.30096 197.642V89.1809C5.30096 86.4736 7.35701 84.2792 9.8855 84.2792H151.187C153.27 84.2792 154.954 86.2634 154.954 88.7103V186.756C154.954 189.203 153.27 191.315 151.187 191.474V191.474Z" fill="url(#paint2_linear_18_4160)"/>
<path d="M153.439 191.474L12.1382 202.196C9.6097 202.388 7.55365 200.349 7.55365 197.642V89.1809C7.55365 86.4736 9.6097 84.2792 12.1382 84.2792H153.439C155.523 84.2792 157.207 86.2634 157.207 88.7103V186.756C157.207 189.203 155.523 191.315 153.439 191.474V191.474Z" fill="url(#paint3_linear_18_4160)"/>
<path d="M149.038 184.561L17.431 193.875C15.3734 194.02 13.701 192.347 13.701 190.137V95.1798C13.701 92.9695 15.3734 91.1707 17.431 91.1619L149.038 90.577C150.757 90.569 152.146 92.1952 152.146 94.2081V180.698C152.146 182.711 150.756 184.441 149.038 184.562V184.561Z" fill="#6F5B97"/>
<path d="M87.7794 87.2455C87.7794 88.2532 87.0519 89.0722 86.1542 89.0754C85.2549 89.0786 84.5251 88.262 84.5251 87.2519C84.5251 86.2418 85.2549 85.4227 86.1542 85.4219C87.0519 85.4219 87.7794 86.2378 87.7794 87.2455Z" fill="#CACACA"/>
<g style="mix-blend-mode:soft-light" opacity="0.48">
<path d="M119.396 161.727C108.502 155.434 99.9374 163.408 91.6717 155.54C86.6603 150.77 89.1208 147.214 82.9543 140.086C76.1242 132.19 71.678 134.844 64.8144 127.739C56.1353 118.755 60.476 111.765 53.0009 105.314C43.9318 97.4884 34.1512 104.732 25.5185 97.2271C21.7949 93.9899 19.7516 89.2848 18.6852 84.28H10.238C8.75755 84.28 7.55606 85.5682 7.55606 87.1576V199.587C7.55606 201.176 8.75835 202.373 10.238 202.26L154.247 191.284C154.953 191.231 155.58 190.787 155.982 190.145C145.441 189.732 138.964 185.937 134.824 182.015C126.725 174.341 128.13 166.773 119.396 161.728L119.396 161.727Z" fill="#CACACA"/>
</g>
<path d="M159.071 190.988L7.55365 202.273L73.6181 214.234C74.3743 214.37 75.1418 214.407 75.9052 214.342L232.999 200.975L161.481 191.064C160.681 190.953 159.874 190.928 159.071 190.988Z" fill="url(#paint4_linear_18_4160)"/>
<path style="mix-blend-mode:multiply" opacity="0.3" d="M29.6633 202.557L155.806 193.021L194.846 198.387L69.7898 208.581L29.6633 202.557Z" fill="url(#paint5_linear_18_4160)"/>
<g opacity="0.75">
<path d="M40.5519 98.6176L26.0597 98.6679V93.9803H40.5519V98.6176Z" fill="#CACACA"/>
<path d="M116.484 98.3523L49.757 98.5856V93.9803H116.484V98.3523Z" fill="#CACACA"/>
<path d="M63.7448 106.32L49.757 106.453V101.847L63.7448 101.764V106.32Z" fill="#CACACA"/>
<path d="M137.123 105.627L72.6324 106.236V101.711L137.123 101.326V105.627Z" fill="#CACACA"/>
<path d="M63.7448 114.103L49.757 114.319V109.714L63.7448 109.547V114.103Z" fill="#CACACA"/>
<path d="M137.123 112.973L72.6324 113.967V109.441L137.123 108.672V112.973Z" fill="#CACACA"/>
<path d="M40.5519 122.383L26.0597 122.693V118.005L40.5519 117.745V122.383Z" fill="#CACACA"/>
<path d="M116.484 120.76L49.757 122.186V117.58L116.484 116.387V120.76Z" fill="#CACACA"/>
<path d="M63.7448 129.671L49.757 130.053V125.448L63.7448 125.114V129.671Z" fill="#CACACA"/>
<path d="M137.123 127.665L72.6324 129.428V124.902L137.123 123.364V127.665Z" fill="#CACACA"/>
<path d="M63.7448 137.454L49.757 137.92V133.315L63.7448 132.898V137.454Z" fill="#CACACA"/>
<path d="M137.123 135.01L72.6324 137.158V132.632L137.123 130.71V135.01Z" fill="#CACACA"/>
<path d="M63.7448 145.237L49.757 145.787V141.181L63.7448 140.681V145.237Z" fill="#CACACA"/>
<path d="M137.123 142.357L72.6324 144.889V140.363L137.123 138.057V142.357Z" fill="#CACACA"/>
<path d="M86.3517 151.999L72.8467 152.61V148.085L86.3517 147.521V151.999Z" fill="#CACACA"/>
<path d="M146.971 149.258L94.9356 151.611V147.163L146.971 144.991V149.258Z" fill="#CACACA"/>
<path d="M40.5519 161.991L26.0597 162.734V158.045L40.5519 157.354V161.991Z" fill="#CACACA"/>
<path d="M116.484 158.105L49.757 161.521V156.915L116.484 153.733V158.105Z" fill="#CACACA"/>
<path d="M63.7448 168.588L49.757 169.387V164.782L63.7448 164.031V168.588Z" fill="#CACACA"/>
<path d="M137.123 164.395L72.6324 168.081V163.554L137.123 160.094V164.395Z" fill="#CACACA"/>
<path d="M63.7448 176.371L49.757 177.254V172.649L63.7448 171.815V176.371Z" fill="#CACACA"/>
<path d="M137.123 171.741L72.6324 175.811V171.285L137.123 167.44V171.741Z" fill="#CACACA"/>
<path d="M40.5519 185.757L26.0597 186.758V182.07L40.5519 181.12V185.757Z" fill="#CACACA"/>
<path d="M116.484 180.512L49.757 185.121V180.515L116.484 176.14V180.512Z" fill="#CACACA"/>
</g>
<path d="M167.08 30.692L43.7303 26.6398C39.5942 26.5039 36.2264 29.7659 36.2264 33.926V154.105C36.2264 158.265 39.5934 161.494 43.7303 161.317L167.08 156.052C170.648 155.899 173.529 152.663 173.529 148.821V37.8584C173.529 34.0171 170.648 30.8087 167.08 30.692Z" fill="#9C5A98"/>
<g style="mix-blend-mode:soft-light" opacity="0.74">
<path d="M43.7303 158.922C40.9164 159.039 38.6294 156.84 38.6294 154.012V33.9947C38.6294 31.1667 40.9164 28.946 43.7303 29.0347L167.08 32.9208C169.51 32.9975 171.475 35.1814 171.475 37.7993V148.9C171.475 151.518 169.51 153.721 167.08 153.822L43.7303 158.922Z" fill="#CACACA"/>
</g>
<path d="M167.08 30.692L43.7303 26.6398C39.5942 26.5039 36.2264 29.7659 36.2264 33.926V39.3296L173.529 42.848V37.8592C173.529 34.0179 170.648 30.8095 167.08 30.6928V30.692Z" fill="#6D436A"/>
<path d="M49.5683 33.584C49.5683 34.9353 48.4795 36.0005 47.1357 35.9637C45.7896 35.9262 44.696 34.7979 44.696 33.4426C44.696 32.0873 45.7888 31.0221 47.1357 31.0628C48.4803 31.1036 49.5683 32.2327 49.5683 33.584Z" fill="#CACACA"/>
<path d="M58.0603 33.8301C58.0603 35.175 56.9819 36.2354 55.6509 36.1987C54.3175 36.1619 53.2343 35.0384 53.2343 33.6903C53.2343 32.3422 54.3167 31.2818 55.6509 31.3217C56.9827 31.3625 58.0603 32.4852 58.0603 33.8301Z" fill="#CACACA"/>
<path d="M66.4715 34.0747C66.4715 35.4132 65.4035 36.4688 64.0845 36.432C62.7639 36.3953 61.6911 35.2781 61.6911 33.9356C61.6911 32.5931 62.7631 31.5383 64.0845 31.5782C65.4035 31.6182 66.4715 32.7361 66.4715 34.0747Z" fill="#CACACA"/>
<path d="M110.126 54.3663L44.9734 53.1956V57.025L110.126 58.0558V54.3663Z" fill="#CACACA"/>
<path d="M159.109 55.2462V58.8309L166.002 58.9396V55.37L159.109 55.2462Z" fill="#CACACA"/>
<g style="mix-blend-mode:soft-light">
<path d="M58.7469 66.392L44.9734 66.2458V62.2966L58.7469 62.474V66.392Z" fill="#CACACA"/>
<path d="M132.332 67.1752L67.5403 66.4855V62.5867L132.332 63.4202V67.1752Z" fill="#CACACA"/>
<path d="M80.9693 73.238L67.5403 73.1461V69.2473L80.9693 69.3687V73.238Z" fill="#CACACA"/>
<path d="M152.753 73.7302L89.5437 73.2963V69.4462L152.753 70.02V73.7302Z" fill="#CACACA"/>
<path d="M80.9693 79.8466L67.5403 79.8058V75.907L80.9693 75.9781V79.8466Z" fill="#CACACA"/>
<path d="M152.753 80.0671L89.5437 79.8729V76.0229L152.753 76.3577V80.0671Z" fill="#CACACA"/>
<path d="M58.7469 86.472L44.9734 86.4816V82.5332L58.7469 82.5532V86.472Z" fill="#CACACA"/>
<path d="M132.332 86.4192L67.5403 86.4655V82.5667L132.332 82.6642V86.4192Z" fill="#CACACA"/>
<path d="M80.9693 93.0654L67.5403 93.1253V89.2265L80.9693 89.1961V93.0654Z" fill="#CACACA"/>
<path d="M152.753 92.7417L89.5437 93.0262V89.1761L152.753 89.0323V92.7417Z" fill="#CACACA"/>
<path d="M80.9693 99.674L67.5403 99.7851V95.8862L80.9693 95.8047V99.674Z" fill="#CACACA"/>
<path d="M152.753 99.0795L89.5437 99.6029V95.7528L152.753 95.3692V99.0795Z" fill="#CACACA"/>
<path d="M80.9693 106.283L67.5403 106.446V102.547L80.9693 102.414V106.283Z" fill="#CACACA"/>
<path d="M152.753 105.416L89.5437 106.179V102.329L152.753 101.707V105.416Z" fill="#CACACA"/>
<path d="M102.843 112.545L89.7507 112.753V108.904L102.843 108.725V112.545Z" fill="#CACACA"/>
<path d="M162.563 111.598L111.205 112.412V108.61L162.563 107.91V111.598Z" fill="#CACACA"/>
<path d="M58.7469 119.938L44.9734 120.209V116.259L58.7469 116.02V119.938Z" fill="#CACACA"/>
<path d="M132.332 118.492L67.5403 119.765V115.866L132.332 114.737V118.492Z" fill="#CACACA"/>
<path d="M80.9693 126.11L67.5403 126.425V122.526L80.9693 122.241V126.11Z" fill="#CACACA"/>
<path d="M152.753 124.429L89.5437 125.909V122.059L152.753 120.718V124.429Z" fill="#CACACA"/>
<path d="M80.9693 132.719L67.5403 133.085V129.186L80.9693 128.85V132.719Z" fill="#CACACA"/>
<path d="M152.753 130.766L89.5437 132.486V128.636L152.753 127.056V130.766Z" fill="#CACACA"/>
<path d="M58.7469 140.018L44.9734 140.444V136.495L58.7469 136.099V140.018Z" fill="#CACACA"/>
<path d="M132.332 137.736L67.5403 139.745V135.846L132.332 133.981V137.736Z" fill="#CACACA"/>
<path d="M80.9693 145.937L67.5403 146.405V142.506L80.9693 142.068V145.937Z" fill="#CACACA"/>
<path d="M152.753 143.44L89.5437 145.639V141.789L152.753 139.731V143.44Z" fill="#CACACA"/>
</g>
<g style="mix-blend-mode:soft-light" opacity="0.5">
<path d="M119.133 76.8923C104.726 55.9358 79.7894 62.6035 64.0142 39.4494C61.1691 35.2733 59.2386 31.0245 57.9148 27.1057L43.7303 26.6398C39.5942 26.5039 36.2264 29.7659 36.2264 33.926V154.105C36.2264 158.265 39.5934 161.494 43.7303 161.317L162.563 156.244C159.841 152.32 136.13 137.783 130.006 115.463C124.405 95.0512 127.826 89.5357 119.134 76.8923H119.133Z" fill="#CACACA"/>
</g>
<path d="M112.69 86.5311C113.033 85.9997 113.66 84.8682 113.7 83.3491C113.777 80.3972 111.587 78.0941 111.293 78.2268C111.135 78.2979 111.335 79.1634 111.448 79.5461C111.683 80.3444 111.935 80.4211 111.914 80.7879C111.871 81.5423 110.78 81.5718 110.206 82.5731C109.792 83.2939 109.759 84.3216 110.206 85.1343C110.947 86.4832 112.62 86.5303 112.69 86.5311Z" fill="url(#paint6_linear_18_4160)"/>
<path d="M159.48 150.653L158.638 147.757L162.153 145.153L164.344 144.334L163.046 148.387L159.48 150.653Z" fill="url(#paint7_linear_18_4160)"/>
<path d="M155.129 208.98C155.129 208.98 157.052 213.815 156.546 215.959C158.61 215.918 159.946 215.655 159.946 215.655C159.946 215.655 159.116 213.451 158.954 212.358C158.735 210.882 158.752 208.495 158.752 208.495L155.13 208.98H155.129Z" fill="url(#paint8_linear_18_4160)"/>
<path d="M133.936 220.289C134.061 220.439 134.281 220.752 134.3 221.176C134.311 221.407 134.258 221.597 134.191 221.772C133.864 222.634 133.349 222.747 132.793 223.662C132.454 224.222 132.518 224.39 132.207 224.642C131.796 224.974 131.301 224.994 130.871 224.998C130.144 225.007 129.099 224.981 127.782 224.824C128.472 223.936 129.206 223.033 129.986 222.121C130.328 221.721 130.67 221.331 131.011 220.949L133.04 220.265C133.339 220.273 133.637 220.281 133.936 220.289Z" fill="#26264F"/>
<path d="M132.25 210.443C132.25 210.443 131.09 216.491 132.566 218.184C133.822 219.878 131.959 218.67 131.959 218.67L129.732 220.611L128.397 222.918C128.397 222.918 129.626 216.998 129.298 214.649C128.971 212.3 128.807 210.716 128.807 210.716L132.25 210.443Z" fill="url(#paint9_linear_18_4160)"/>
<path d="M127.878 144.286C127.878 144.286 124.763 147.072 124.763 158.544C124.763 170.016 126.238 194.928 126.238 194.928L128.6 212.763C128.6 212.763 131.048 212.85 132.688 212.359C134.164 205.639 136.568 194.273 135.42 184.767C134.929 174.441 139.519 161.494 139.519 161.494C139.519 161.494 143.453 174.605 146.241 181.161C149.028 187.717 154.335 208.254 154.826 209.729C158.088 210.025 159.48 209.163 159.48 209.163C159.48 209.163 157.389 187.062 155.422 178.703C153.455 170.344 153.618 150.186 150.339 144.45C142.962 141.5 127.878 144.286 127.878 144.286V144.286Z" fill="url(#paint10_linear_18_4160)"/>
<path d="M127.878 144.286C127.878 144.286 124.763 147.072 124.763 158.544C124.763 170.016 126.238 194.928 126.238 194.928L128.6 212.763C128.6 212.763 131.048 212.85 132.688 212.359C134.164 205.639 136.568 194.273 135.42 184.767C134.929 174.441 139.519 161.494 139.519 161.494C139.519 161.494 143.453 174.605 146.241 181.161C149.028 187.717 154.335 208.254 154.826 209.729C158.088 210.025 159.48 209.163 159.48 209.163C159.48 209.163 157.389 187.062 155.422 178.703C153.455 170.344 153.618 150.186 150.339 144.45C142.962 141.5 127.878 144.286 127.878 144.286V144.286Z" fill="url(#paint11_linear_18_4160)"/>
<path style="mix-blend-mode:multiply" opacity="0.25" d="M144.06 165.306C145.031 171.617 146.974 175.016 151.831 179.386C155.716 182.298 152.802 188.61 154.26 193.465C154.745 194.922 156.202 196.378 156.688 197.834C158.496 201.448 156.807 205.867 157.627 209.693C158.902 209.517 159.48 209.163 159.48 209.163C159.48 209.163 157.389 187.062 155.422 178.703C153.455 170.344 153.618 150.186 150.339 144.45C142.962 141.5 127.878 144.286 127.878 144.286C127.878 144.286 124.763 147.073 124.763 158.545C124.763 159.476 124.772 160.496 124.791 161.583C128.024 164.444 134.638 165.08 138.718 161.908C138.964 161.724 139.226 161.61 139.497 161.555C139.51 161.519 139.518 161.494 139.518 161.494C139.518 161.494 139.525 161.517 139.535 161.551C141.391 161.212 143.638 163.622 144.059 165.306H144.06Z" fill="url(#paint12_linear_18_4160)"/>
<path d="M156.04 217.794C156.04 217.794 155.561 217.794 155.601 218.412C155.641 219.031 155.385 221.159 157.821 221.259C160.257 221.358 160.632 221.086 160.712 221.086C160.792 221.086 160.073 219.05 160.073 219.05L159.295 218.052L157.199 217.832L156.041 217.792L156.04 217.794Z" fill="#26264F"/>
<path d="M161.44 219.93C161.389 219.416 161.101 218.607 160.811 217.956C160.381 216.989 160.735 216.627 160.324 215.746C160.181 215.442 160.043 215.153 159.743 214.867C159.675 214.801 159.002 214.18 158.023 214.211C157.83 214.218 157.534 214.23 157.213 214.401C156.836 214.603 156.647 214.905 156.485 215.17C156.231 215.587 156.289 215.715 155.898 216.91C155.867 217.006 155.798 217.214 155.745 217.502C155.704 217.722 155.688 217.907 155.681 218.033C156.32 218.033 158.775 218.133 159.294 218.512C159.813 218.892 160.073 219.53 160.073 220.169C160.073 220.807 160.392 221.107 160.711 221.087C160.997 221.069 161.564 220.541 161.44 219.93Z" fill="#444B8C"/>
<path d="M131.938 217.335C132.486 217.344 132.889 217.78 133.192 218.832C133.496 219.883 134.953 220.814 133.253 220.591C131.553 220.369 130.318 222.776 129.712 223.666C129.104 224.556 127.475 225.347 127.515 224.477C127.556 223.607 128.274 223.201 128.477 222.311C128.679 221.421 130.685 217.315 131.937 217.335H131.938Z" fill="#444B8C"/>
<path d="M160.77 145.67C161.173 144.549 163.691 137.186 159.622 130.469C156.291 124.971 150.527 123.177 149.705 122.935C144.703 121.458 142.195 123.355 140.616 121.609C137.937 118.646 140.972 108.553 146.841 106.53C153.457 104.251 161.393 113.014 164.609 118.77C168.829 126.322 167.79 133.827 167.546 135.372C166.912 139.39 165.437 142.453 164.344 144.334C163.153 144.779 161.961 145.225 160.77 145.67Z" fill="#CACACA"/>
<path d="M143.493 105.105C137.588 104.87 133.034 104.963 130.462 107.533C127.744 110.248 130.49 113.312 129.9 120.412C128.997 131.283 122.068 133.939 121.546 144.967C121.37 148.683 121.999 151.72 122.488 153.55C124.008 155.443 126.497 158.115 130.171 160.349C135.517 163.601 138.617 163.033 146.294 165.134C158.852 168.57 159.97 172.661 166.196 171.619C172.489 170.566 178.01 165.272 177.344 162.365C176.944 160.623 174.407 161.116 171.487 158.461C167.722 155.038 169.174 151.772 166.312 148.094C162.201 142.811 156.474 146.041 152.971 141.462C149.427 136.831 150.833 127.705 153.82 122.731C155.771 119.481 156.607 115.674 158.267 112.267C158.405 111.984 158.565 111.52 158.495 110.94C158.225 108.721 154.526 107.517 151.723 106.635C147.449 105.288 143.98 105.125 143.495 105.106L143.493 105.105Z" fill="#CACACA"/>
<path d="M138.519 104.862L139.684 104.504C139.684 104.504 139.989 106.08 143.734 106.277C145.812 106.277 147.156 105.113 147.156 105.113L147.952 105.693C147.952 105.693 146.206 107.873 143.429 107.818C139.846 107.746 138.519 104.863 138.519 104.863V104.862Z" fill="url(#paint13_linear_18_4160)"/>
<path d="M140.89 100.066C141.115 98.3355 142.484 97.2263 142.783 96.9882C144.034 95.9941 144.288 95.8942 144.718 95.8127L145.305 95.724C145.305 95.724 145.337 95.724 145.369 95.7264C145.712 95.7472 146.741 96.1491 146.928 96.2802C147.526 96.7005 147.086 99.6772 145.273 103.379C145.202 103.692 145.131 104.006 145.059 104.319C146.639 104.596 147.031 104.882 147.043 105.109C147.07 105.603 145.34 106.231 143.737 106.271C141.727 106.323 139.592 105.458 139.633 104.813C139.65 104.552 140.029 104.23 141.488 103.913C141.716 103.593 141.945 103.272 142.173 102.951C141.966 102.7 140.724 101.341 140.89 100.066L140.89 100.066Z" fill="url(#paint14_linear_18_4160)"/>
<path d="M143.376 99.4151C143.831 99.1426 144.179 99.7283 143.964 100.241C143.749 100.754 143.028 101.075 142.59 100.769C142.152 100.463 142.762 99.7818 143.376 99.4151Z" fill="url(#paint15_linear_18_4160)"/>
<path d="M202.472 99.4063C196.47 92.896 182.506 94.6812 174.761 99.9097C171.162 102.339 169.315 105.209 165.062 105.45C161.829 105.633 156.686 104.418 153.977 100.917C153.636 100.476 152.271 98.6264 150.222 96.2938C149.318 95.2653 148.42 94.3 147.027 94.0818C146.672 94.0267 145.496 93.8349 144.717 94.5949C144.086 95.2102 143.932 96.281 144.118 97.0529C144.23 97.514 144.374 97.5627 144.353 97.8648C144.296 98.7135 142.749 99.0834 142.835 99.511C142.897 99.8162 143.702 99.7043 143.84 100.088C143.992 100.508 143.108 100.869 142.728 101.926C142.017 102.402 141.568 103.587 141.412 105.172C141.183 107.502 141.417 109.396 141.859 110.822C143.986 117.689 145.508 122.601 149.19 125.344C154.064 128.975 158.454 125.623 170.855 125.092C187.835 124.366 192.069 130.119 198.172 126.183C205.792 121.269 208.702 106.165 202.471 99.4055L202.472 99.4063Z" fill="url(#paint16_linear_18_4160)"/>
<path d="M113.408 86.118C113.257 87.538 112.745 93.8205 117.08 99.1258C121.13 104.083 126.867 105.073 127.934 105.233C133.092 106.012 135.316 103.79 137.119 105.304C140.177 107.874 138.552 118.288 133.015 121.092C126.773 124.254 117.712 116.658 113.739 111.396C108.526 104.493 108.529 96.9155 108.559 95.3508C108.638 91.285 109.68 88.0486 110.505 86.0357C110.844 85.9334 111.361 85.8207 111.993 85.8431C112.596 85.8639 113.083 85.9997 113.408 86.118Z" fill="#CACACA"/>
<path style="mix-blend-mode:multiply" opacity="0.25" d="M166.384 167.463C164.874 165.915 166.536 162.794 164.306 160.475C162.235 158.321 159.891 160.061 156.559 158.208C152.285 155.832 153.463 151.482 149.38 149.143C146.444 147.46 145.064 149.269 140.5 148.387C135.943 147.507 130.393 144.367 127.652 138.755C126.487 136.37 126.058 134 126 131.881C123.95 135.541 121.825 139.049 121.545 144.968C121.369 148.684 121.998 151.721 122.487 153.55C124.007 155.444 126.497 158.116 130.171 160.35C135.516 163.602 138.616 163.034 146.294 165.135C158.851 168.57 159.969 172.662 166.195 171.62C170.217 170.947 173.915 168.542 175.893 166.134C170.089 168.717 167.48 168.588 166.384 167.464V167.463Z" fill="url(#paint17_linear_18_4160)"/>
<path d="M217.303 40.569C217.303 17.721 196.22 -0.115865 171.108 0.700821C156.808 1.1659 144.366 7.60988 136.597 17.1232C136.596 17.12 136.595 17.1176 136.594 17.1152C136.546 17.1744 136.5 17.2359 136.452 17.295C136.318 17.4612 136.188 17.6307 136.057 17.7993C135.817 18.1061 135.58 18.4154 135.35 18.7278C135.214 18.9132 135.08 19.0986 134.947 19.2864C134.726 19.5989 134.51 19.9145 134.297 20.2325C134.176 20.4147 134.053 20.5961 133.935 20.7799C133.698 21.1475 133.47 21.5199 133.247 21.8947C133.167 22.0305 133.081 22.1632 133.002 22.2998C132.707 22.8081 132.424 23.3219 132.154 23.8421C132.082 23.9803 132.016 24.121 131.946 24.26C131.749 24.65 131.557 25.0424 131.373 25.4395C131.283 25.6337 131.198 25.8303 131.111 26.0269C130.956 26.3777 130.806 26.7309 130.662 27.0865C130.578 27.2934 130.496 27.5004 130.416 27.7082C130.276 28.0734 130.143 28.441 130.014 28.8109C129.947 29.0043 129.877 29.1969 129.812 29.3911C129.659 29.8562 129.517 30.326 129.382 30.7983C129.354 30.8966 129.322 30.9941 129.294 31.0924C129.137 31.6621 128.995 32.2367 128.865 32.8161C128.827 32.9863 128.796 33.1589 128.76 33.3299C128.672 33.7454 128.591 34.1617 128.518 34.5813C128.481 34.7946 128.449 35.0096 128.416 35.2246C128.356 35.6129 128.302 36.0029 128.255 36.3944C128.229 36.6142 128.203 36.834 128.18 37.0545C128.138 37.4676 128.106 37.8832 128.078 38.2995C128.065 38.4937 128.048 38.6863 128.039 38.8805C128.007 39.4894 127.989 40.1007 127.989 40.716C127.989 55.378 136.872 68.3107 150.189 75.2357C151.414 75.8726 152.677 76.4592 153.974 76.9922C154.624 77.2591 155.283 77.5124 155.949 77.7521C160.637 79.4358 165.74 80.4331 171.106 80.5906C171.845 80.6121 172.581 80.6153 173.313 80.6049C173.56 80.6017 173.805 80.5874 174.051 80.5802C174.535 80.5658 175.019 80.5514 175.5 80.5242C175.794 80.5074 176.085 80.4803 176.377 80.4587C176.806 80.4259 177.236 80.394 177.662 80.35C177.974 80.3181 178.284 80.2789 178.594 80.2413C178.997 80.1926 179.4 80.1431 179.799 80.0847C180.118 80.0384 180.435 79.9856 180.752 79.9329C181.139 79.869 181.525 79.8018 181.908 79.7283C182.229 79.6668 182.549 79.6021 182.867 79.5349C183.242 79.4558 183.616 79.3719 183.987 79.284C184.306 79.2089 184.625 79.1314 184.94 79.0499C185.308 78.9548 185.673 78.8549 186.036 78.7518C186.35 78.6631 186.662 78.5744 186.972 78.4801C187.087 78.445 187.204 78.4154 187.318 78.3794C187.315 78.377 187.313 78.3738 187.31 78.3714C204.683 72.9319 217.3 58.1844 217.3 40.5698L217.303 40.569Z" fill="url(#paint18_linear_18_4160)"/>
<path d="M213.852 40.5746C213.852 63.3634 192.877 81.2258 167.891 80.4962C143.836 79.7938 124.984 61.997 124.984 40.7216C124.984 19.4462 143.836 1.58702 167.892 0.805495C192.877 -0.0063959 213.853 17.7857 213.853 40.5754L213.852 40.5746Z" fill="url(#paint19_linear_18_4160)"/>
<path d="M156.619 51.6126L138.782 42.538V39.6156L156.619 29.2904V34.2648L144.278 40.8535L156.619 46.659V51.6126Z" fill="#CACACA"/>
<path d="M175.594 25.2629L165.449 55.9102L160.352 55.8582L170.417 25.3332L175.593 25.2637L175.594 25.2629Z" fill="#CACACA"/>
<path d="M179.365 46.7277L192.401 40.7799L179.365 34.113V29.0507L198.376 39.4654V42.526L179.365 51.7692V46.7277Z" fill="#CACACA"/>
<g style="mix-blend-mode:multiply" opacity="0.3">
<path d="M178.758 70.5785C173.336 58.6463 178.818 47.6203 171.497 39.9672C164.143 32.2798 154.712 39.4654 144.715 33.3147C140.891 30.9621 136.667 26.4608 133.546 17.1768C128.162 23.7846 124.985 31.933 124.985 40.7208C124.985 61.9954 143.837 79.793 167.892 80.4954C173.531 80.6601 178.973 79.8737 184.022 78.2883C181.527 75.6888 179.88 73.0494 178.758 70.5778V70.5785Z" fill="url(#paint20_linear_18_4160)"/>
</g>
<defs>
<linearGradient id="paint0_linear_18_4160" x1="34.6468" y1="5.83748" x2="72.5714" y2="126.55" gradientUnits="userSpaceOnUse">
<stop stop-color="#FF9085"/>
<stop offset="1" stop-color="#FB6FBB"/>
</linearGradient>
<linearGradient id="paint1_linear_18_4160" x1="102.777" y1="209.655" x2="86.9402" y2="216.309" gradientUnits="userSpaceOnUse">
<stop stop-color="#40447E"/>
<stop offset="1" stop-color="#3C3B6B"/>
</linearGradient>
<linearGradient id="paint2_linear_18_4160" x1="77.0067" y1="139.27" x2="60.5866" y2="146.169" gradientUnits="userSpaceOnUse">
<stop stop-color="#40447E"/>
<stop offset="1" stop-color="#3C3B6B"/>
</linearGradient>
<linearGradient id="paint3_linear_18_4160" x1="7.55445" y1="143.244" x2="157.207" y2="143.244" gradientUnits="userSpaceOnUse">
<stop stop-color="#40447E"/>
<stop offset="1" stop-color="#3C3B6B"/>
</linearGradient>
<linearGradient id="paint4_linear_18_4160" x1="7.55445" y1="202.665" x2="233" y2="202.665" gradientUnits="userSpaceOnUse">
<stop stop-color="#40447E"/>
<stop offset="1" stop-color="#3C3B6B"/>
</linearGradient>
<linearGradient id="paint5_linear_18_4160" x1="29.6633" y1="200.802" x2="194.846" y2="200.802" gradientUnits="userSpaceOnUse">
<stop stop-color="#40447E"/>
<stop offset="1" stop-color="#3C3B6B"/>
</linearGradient>
<linearGradient id="paint6_linear_18_4160" x1="112.868" y1="80.9541" x2="109.49" y2="86.4203" gradientUnits="userSpaceOnUse">
<stop stop-color="#FFC444"/>
<stop offset="1" stop-color="#F36F56"/>
</linearGradient>
<linearGradient id="paint7_linear_18_4160" x1="161.012" y1="145.644" x2="162.376" y2="148.45" gradientUnits="userSpaceOnUse">
<stop stop-color="#FFC444"/>
<stop offset="1" stop-color="#F36F56"/>
</linearGradient>
<linearGradient id="paint8_linear_18_4160" x1="157.537" y1="217.092" x2="157.537" y2="208.29" gradientUnits="userSpaceOnUse">
<stop stop-color="#FFC444"/>
<stop offset="1" stop-color="#F36F56"/>
</linearGradient>
<linearGradient id="paint9_linear_18_4160" x1="130.699" y1="219.6" x2="130.699" y2="208.992" gradientUnits="userSpaceOnUse">
<stop stop-color="#FFC444"/>
<stop offset="1" stop-color="#F36F56"/>
</linearGradient>
<linearGradient id="paint10_linear_18_4160" x1="124.763" y1="177.932" x2="159.48" y2="177.932" gradientUnits="userSpaceOnUse">
<stop stop-color="#311944"/>
<stop offset="1" stop-color="#893976"/>
</linearGradient>
<linearGradient id="paint11_linear_18_4160" x1="123.659" y1="152.062" x2="148.658" y2="194.064" gradientUnits="userSpaceOnUse">
<stop stop-color="#311944"/>
<stop offset="1" stop-color="#893976"/>
</linearGradient>
<linearGradient id="paint12_linear_18_4160" x1="133.506" y1="146.201" x2="158.504" y2="188.204" gradientUnits="userSpaceOnUse">
<stop stop-color="#311944"/>
<stop offset="1" stop-color="#893976"/>
</linearGradient>
<linearGradient id="paint13_linear_18_4160" x1="139.936" y1="100.053" x2="145.06" y2="108.201" gradientUnits="userSpaceOnUse">
<stop stop-color="#E38DDD"/>
<stop offset="1" stop-color="#9571F6"/>
</linearGradient>
<linearGradient id="paint14_linear_18_4160" x1="146.125" y1="98.803" x2="140.494" y2="107.916" gradientUnits="userSpaceOnUse">
<stop stop-color="#FFC444"/>
<stop offset="1" stop-color="#F36F56"/>
</linearGradient>
<linearGradient id="paint15_linear_18_4160" x1="144.11" y1="97.57" x2="140.897" y2="107.426" gradientUnits="userSpaceOnUse">
<stop stop-color="#FFC444"/>
<stop offset="1" stop-color="#F36F56"/>
</linearGradient>
<linearGradient id="paint16_linear_18_4160" x1="142.456" y1="59.8873" x2="189.652" y2="134.929" gradientUnits="userSpaceOnUse">
<stop stop-color="#444B8C"/>
<stop offset="1" stop-color="#26264F"/>
</linearGradient>
<linearGradient id="paint17_linear_18_4160" x1="124.378" y1="108.837" x2="151.189" y2="163.99" gradientUnits="userSpaceOnUse">
<stop stop-color="#FF9085"/>
<stop offset="1" stop-color="#FB6FBB"/>
</linearGradient>
<linearGradient id="paint18_linear_18_4160" x1="113.376" y1="-78.2979" x2="179.248" y2="53.9387" gradientUnits="userSpaceOnUse">
<stop stop-color="#CB9D39"/>
<stop offset="1" stop-color="#D05E49"/>
</linearGradient>
<linearGradient id="paint19_linear_18_4160" x1="152.136" y1="8.54643" x2="216.119" y2="127.259" gradientUnits="userSpaceOnUse">
<stop stop-color="#D9A73A"/>
<stop offset="1" stop-color="#BE5845"/>
</linearGradient>
<linearGradient id="paint20_linear_18_4160" x1="134.554" y1="16.4344" x2="196.711" y2="141.213" gradientUnits="userSpaceOnUse">
<stop stop-color="#BF9231"/>
<stop offset="1" stop-color="#CC5F4A"/>
</linearGradient>
</defs>
</svg>
